<svg width="56" height="56" viewBox="0 0 56 56" fill="none" xmlns="http://www.w3.org/2000/svg">
<path fill-rule="evenodd" clip-rule="evenodd" d="M42 11.6667H14C12.7113 11.6667 11.6667 12.7113 11.6667 14V18.6667C11.6667 19.9553 12.7113 21 14 21H42C43.2887 21 44.3333 19.9553 44.3333 18.6667V14C44.3333 12.7113 43.2887 11.6667 42 11.6667ZM14 7C10.134 7 7 10.134 7 14V18.6667C7 22.5327 10.134 25.6667 14 25.6667H42C45.866 25.6667 49 22.5327 49 18.6667V14C49 10.134 45.866 7 42 7H14Z" fill="#00D488"/>
<path fill-rule="evenodd" clip-rule="evenodd" d="M42 34.9999H14C12.7113 34.9999 11.6667 36.0446 11.6667 37.3333V41.9999C11.6667 43.2886 12.7113 44.3333 14 44.3333H42C43.2887 44.3333 44.3333 43.2886 44.3333 41.9999V37.3333C44.3333 36.0446 43.2887 34.9999 42 34.9999ZM14 30.3333C10.134 30.3333 7 33.4673 7 37.3333V41.9999C7 45.8659 10.134 48.9999 14 48.9999H42C45.866 48.9999 49 45.8659 49 41.9999V37.3333C49 33.4673 45.866 30.3333 42 30.3333H14Z" fill="#00D488"/>
</svg>
