<svg width="136" height="32" viewBox="0 0 136 32" fill="none" xmlns="http://www.w3.org/2000/svg">
<path d="M49.0339 25.4545C48.0835 25.4545 47.254 25.2663 46.5453 24.8897C45.8526 24.4968 45.2728 23.9811 44.8056 23.3426C44.3385 22.6878 43.9841 21.9592 43.7425 21.157C43.517 20.3548 43.4043 19.5362 43.4043 18.7013C43.4043 17.8664 43.517 17.0478 43.7425 16.2456C43.9841 15.4434 44.3385 14.723 44.8056 14.0845C45.2728 13.4297 45.8526 12.914 46.5453 12.5374C47.254 12.1445 48.0835 11.9481 49.0339 11.9481C49.8554 11.9481 50.5319 12.0872 51.0635 12.3655C51.595 12.6275 51.9977 12.914 52.2715 13.225C52.5615 13.5361 52.7387 13.7489 52.8031 13.8635H52.9964V6.54546H56.6689V25.209H52.9964V23.5391H52.8031C52.7387 23.6537 52.5615 23.8665 52.2715 24.1776C51.9977 24.4886 51.595 24.7833 51.0635 25.0616C50.5319 25.3236 49.8554 25.4545 49.0339 25.4545ZM50.097 22.434C50.7574 22.434 51.3051 22.2539 51.74 21.8937C52.191 21.5172 52.5212 21.0424 52.7306 20.4694C52.9561 19.8964 53.0689 19.307 53.0689 18.7013C53.0689 18.0956 52.9561 17.5062 52.7306 16.9332C52.5212 16.3602 52.191 15.8936 51.74 15.5334C51.3051 15.1569 50.7574 14.9686 50.097 14.9686C49.4366 14.9686 48.8809 15.1569 48.4299 15.5334C47.995 15.8936 47.6647 16.3602 47.4392 16.9332C47.2298 17.5062 47.1251 18.0956 47.1251 18.7013C47.1251 19.307 47.2298 19.8964 47.4392 20.4694C47.6647 21.0424 47.995 21.5172 48.4299 21.8937C48.8809 22.2539 49.4366 22.434 50.097 22.434Z" fill="#2D2D2D"/>
<path d="M65.9496 25.4545C64.8221 25.4545 63.8475 25.2663 63.0261 24.8897C62.2046 24.4968 61.528 23.9811 60.9965 23.3426C60.4649 22.6878 60.0622 21.9592 59.7884 21.157C59.5307 20.3548 59.4018 19.5281 59.4018 18.6767C59.4018 17.8582 59.5226 17.056 59.7642 16.2701C60.022 15.4679 60.4086 14.7394 60.924 14.0845C61.4556 13.4297 62.124 12.914 62.9294 12.5374C63.7509 12.1445 64.7174 11.9481 65.8288 11.9481C67.0046 11.9481 68.0436 12.21 68.9456 12.7339C69.8638 13.2578 70.5805 14.0354 71.096 15.0668C71.6114 16.0819 71.8692 17.3179 71.8692 18.775V19.6836H63.0985C63.1469 20.4694 63.4126 21.1488 63.8959 21.7218C64.3952 22.2948 65.0798 22.5813 65.9496 22.5813C66.4489 22.5813 66.8516 22.5077 67.1577 22.3603C67.4798 22.1966 67.7295 22.0165 67.9067 21.8201C68.0839 21.6072 68.2047 21.419 68.2691 21.2553C68.3335 21.0915 68.3657 21.0097 68.3657 21.0097H71.7484C71.7484 21.0097 71.7081 21.1652 71.6275 21.4763C71.5631 21.771 71.4181 22.1393 71.1926 22.5813C70.9671 23.0234 70.6369 23.4654 70.202 23.9074C69.7832 24.3495 69.2275 24.7178 68.5349 25.0125C67.8422 25.3072 66.9805 25.4545 65.9496 25.4545ZM63.0985 17.4243H68.3416C68.2933 16.5239 68.0275 15.8527 67.5443 15.4106C67.061 14.9686 66.465 14.7476 65.7563 14.7476C65.0476 14.7476 64.4435 14.985 63.9442 15.4597C63.4448 15.9181 63.163 16.573 63.0985 17.4243Z" fill="#2D2D2D"/>
<path d="M74.3652 25.209V12.1936H78.0377V13.9617H78.1585C78.4323 13.487 78.8431 13.0368 79.3907 12.6111C79.9384 12.1691 80.6874 11.9481 81.6378 11.9481C82.6042 11.9481 83.3774 12.1773 83.9573 12.6357C84.5533 13.0941 84.9882 13.6589 85.262 14.3301H85.3103C85.5197 13.9536 85.7935 13.5852 86.1318 13.225C86.4862 12.8485 86.9211 12.5456 87.4365 12.3164C87.9681 12.0708 88.5882 11.9481 89.297 11.9481C90.1829 11.9481 90.9158 12.1527 91.4957 12.562C92.0755 12.9713 92.5024 13.5115 92.7762 14.1828C93.0662 14.8376 93.2111 15.5416 93.2111 16.2947V25.209H89.5386V17.2279C89.5386 16.5894 89.3775 16.0655 89.0554 15.6562C88.7493 15.2305 88.2822 15.0177 87.654 15.0177C87.1708 15.0177 86.7761 15.1405 86.4701 15.3861C86.1801 15.6316 85.9627 15.9509 85.8177 16.3438C85.6889 16.7203 85.6244 17.1133 85.6244 17.5226V25.209H81.9519V17.2279C81.9519 16.5894 81.7908 16.0655 81.4686 15.6562C81.1626 15.2305 80.6955 15.0177 80.0673 15.0177C79.584 15.0177 79.1894 15.1405 78.8834 15.3861C78.5934 15.6316 78.376 15.9509 78.231 16.3438C78.1021 16.7203 78.0377 17.1133 78.0377 17.5226V25.209H74.3652Z" fill="#2D2D2D"/>
<path d="M100.012 25.4545C99.1102 25.4545 98.3612 25.2581 97.7652 24.8652C97.1853 24.4723 96.7504 23.9484 96.4605 23.2935C96.1705 22.6223 96.0256 21.8692 96.0256 21.0342V12.1936H99.674V20.2975C99.674 20.9196 99.835 21.4272 100.157 21.8201C100.479 22.1966 100.955 22.3849 101.583 22.3849C102.114 22.3849 102.533 22.2539 102.839 21.992C103.161 21.73 103.395 21.3944 103.54 20.9851C103.685 20.5758 103.757 20.142 103.757 19.6836V12.1936H107.43V25.209H103.757V23.3672H103.612C103.338 23.8747 102.912 24.3495 102.332 24.7915C101.768 25.2335 100.995 25.4545 100.012 25.4545Z" fill="#2D2D2D"/>
<path d="M109.892 25.209V22.655L116.319 15.1159H110.133V12.1936H120.716V14.7476L114.289 22.2867H120.716V25.209H109.892Z" fill="#2D2D2D"/>
<path d="M129.283 25.4545C127.85 25.4545 126.633 25.1435 125.635 24.5214C124.636 23.8829 123.871 23.0561 123.339 22.0411C122.824 21.0097 122.566 19.8964 122.566 18.7013C122.566 17.5062 122.824 16.4011 123.339 15.3861C123.871 14.3547 124.636 13.5279 125.635 12.9058C126.633 12.2673 127.85 11.9481 129.283 11.9481C130.717 11.9481 131.933 12.2673 132.932 12.9058C133.93 13.5279 134.687 14.3547 135.203 15.3861C135.734 16.4011 136 17.5062 136 18.7013C136 19.8964 135.734 21.0097 135.203 22.0411C134.687 23.0561 133.93 23.8829 132.932 24.5214C131.933 25.1435 130.717 25.4545 129.283 25.4545ZM129.283 22.4094C129.927 22.4094 130.467 22.2375 130.902 21.8937C131.353 21.5499 131.699 21.0997 131.941 20.5431C132.183 19.9701 132.303 19.3562 132.303 18.7013C132.303 18.0301 132.183 17.4161 131.941 16.8595C131.699 16.3029 131.353 15.8527 130.902 15.5089C130.467 15.1651 129.927 14.9932 129.283 14.9932C128.639 14.9932 128.091 15.1651 127.64 15.5089C127.189 15.8527 126.843 16.3029 126.601 16.8595C126.376 17.4161 126.263 18.0301 126.263 18.7013C126.263 19.3562 126.376 19.9701 126.601 20.5431C126.843 21.0997 127.189 21.5499 127.64 21.8937C128.091 22.2375 128.639 22.4094 129.283 22.4094Z" fill="#2D2D2D"/>
<path d="M0 16.7079C0 14.7103 1.6194 13.0909 3.61702 13.0909C5.61465 13.0909 7.23404 14.7103 7.23404 16.7079V32H4C1.79086 32 0 30.2091 0 28V16.7079Z" fill="#00D488"/>
<path d="M14.4681 16.7079C14.4681 14.7103 16.0875 13.0909 18.0851 13.0909C20.0827 13.0909 21.7021 14.7103 21.7021 16.7079V32H14.4681V16.7079Z" fill="#00D488"/>
<path fill-rule="evenodd" clip-rule="evenodd" d="M4 0C1.79086 0 0 1.79086 0 4V11.6291C1.2158 9.05429 3.83602 7.27273 6.87234 7.27273C10.1897 7.27273 13.0103 9.39933 14.0454 12.3636H14.1674C15.2024 9.39933 18.0231 7.27273 21.3404 7.27273C25.5354 7.27273 28.9362 10.6735 28.9362 14.8685V29.3872C33.293 26.5285 36.1702 21.6002 36.1702 16C36.1702 7.16344 29.0068 0 20.1702 0H4Z" fill="#00D488"/>
</svg>
